<?xml version="1.0" encoding="UTF-8" standalone="no"?>
<svg
   xmlns:dc="http://purl.org/dc/elements/1.1/"
   xmlns:cc="http://creativecommons.org/ns#"
   xmlns:rdf="http://www.w3.org/1999/02/22-rdf-syntax-ns#"
   xmlns:svg="http://www.w3.org/2000/svg"
   xmlns="http://www.w3.org/2000/svg"
   xmlns:sodipodi="http://sodipodi.sourceforge.net/DTD/sodipodi-0.dtd"
   xmlns:inkscape="http://www.inkscape.org/namespaces/inkscape"
   version="1.0"
   width="1280.000000pt"
   height="847.000000pt"
   viewBox="0 0 1280.000000 847.000000"
   preserveAspectRatio="xMidYMid meet"
   id="svg20"
   sodipodi:docname="drone.svg"
   inkscape:version="1.0.1 (1.0.1+r73)">
  <defs
     id="defs24" />
  <sodipodi:namedview
     pagecolor="#ffffff"
     bordercolor="#666666"
     borderopacity="1"
     objecttolerance="10"
     gridtolerance="10"
     guidetolerance="10"
     inkscape:pageopacity="0"
     inkscape:pageshadow="2"
     inkscape:window-width="1440"
     inkscape:window-height="841"
     id="namedview22"
     showgrid="false"
     inkscape:zoom="0.1438902"
     inkscape:cx="1467.9453"
     inkscape:cy="663.61517"
     inkscape:window-x="0"
     inkscape:window-y="0"
     inkscape:window-maximized="1"
     inkscape:current-layer="svg20" />
  <metadata
     id="metadata2">
Created by potrace 1.15, written by Peter Selinger 2001-2017
<rdf:RDF>
  <cc:Work
     rdf:about="">
    <dc:format>image/svg+xml</dc:format>
    <dc:type
       rdf:resource="http://purl.org/dc/dcmitype/StillImage" />
  </cc:Work>
</rdf:RDF>
</metadata>
  <path
     d="m 226.64326,56.415065 c -43.1,4.5 -74.8,21.599996 -90.2,48.500005 -5.7,9.9 -10.4,21 -13.6,32 -2.2,7.8 -2.6,10.8 -2.6,22.3 0.1,13.7 2,26.1 4.8,31.7 0.9,1.6 3.4,5 5.7,7.5 2.3,2.5 6.9,8.5 10.3,13.5 24.7,36.1 56.8,65.9 97.2,90.3 5.8,3.5 23.2,12.6 38.6,20.2 35.2,17.4 39.3,19.7 41.2,23.3 1.9,3.8 9.3,7.1 20.6,9.3 7.6,1.5 9.6,1.6 15,0.4 3.7,-0.7 16.4,-1.5 31.4,-1.7 l 25.2,-0.5 27,21.2 c 14.9,11.6 27.1,21.5 27.1,21.9 0,0.4 -3.7,1.1 -8.2,1.5 -16.8,1.3 -32.2,7 -48.7,18 l -10.7,7.2 -14.4,-4.7 c -15.8,-5.1 -36,-9.8 -54,-12.5 -16.5,-2.6 -50.8,-2.6 -64.5,0 -22.1,4.1 -38.1,11.4 -49.6,22.6 -7.6,7.5 -12.3,15.5 -17.9,30.3 -3.7,9.7 -4,11.4 -4,20.4 0,16.9 3.2,27 10,31.9 1.6,1.1 6.4,6.4 10.7,11.9 29.6,37.3 60.1,59.4 123.8,89.6 20.4,9.6 23.1,11.3 25.5,16.1 1.6,2.9 3.1,4.1 7.7,5.8 9.3,3.5 17.3,4.6 24.1,3.2 8.4,-1.7 10.6,-1.6 9.6,0.5 -0.4,1 -0.9,14.4 -1.2,29.9 l -0.4,28.1 2.8,2 c 1.6,1.1 3.4,2.3 4.1,2.7 0.7,0.4 2.3,-0.8 3.9,-2.9 2.5,-3.3 2.7,-4.4 4,-22.7 1.2,-17.7 3,-34.1 4,-37.8 0.3,-1.3 3.9,-1.5 24.6,-1.5 18.9,-0.1 26.7,-0.5 35,-1.9 l 10.7,-1.8 7.3,6 c 22.5,18.5 50.3,23.7 77.9,14.5 19.4,-6.4 36.6,-21.6 45.4,-40.1 2.6,-5.5 3.2,-6.3 5.5,-6 1.5,0.2 2.9,1.2 3.5,2.6 1.2,2.7 4.9,3.9 7,2.2 0.7,-0.6 2.2,-3.5 3.2,-6.3 2,-5.8 2.4,-23.4 1,-41 l -0.7,-9.7 h 8.5 c 8.2,0 12.1,1 13.7,3.4 0.4,0.6 0.8,3.3 0.8,6.1 0.1,2.9 1.1,7.1 2.4,10 l 2.2,5 -2.4,5.4 c -2.8,6.1 -4.3,20.6 -3.1,29.6 1.1,8.2 8.7,21 26.3,43.9 0.5,0.7 -0.2,2.7 -1.8,5 -3.1,4.6 -3.3,8.9 -0.6,13.4 1.8,2.9 3.9,4.3 10.3,6.5 1.4,0.5 1.5,1 0.7,2.4 -0.6,1 -3.3,11 -6.1,22.2 -4.5,18.2 -7.4,27.2 -20.3,63.8 l -3.7,10.2 2.3,3.6 c 2.6,4 2.7,4 7.1,2.2 2.9,-1.3 3.9,-3 10.6,-18.8 13.4,-31.2 22.1,-57.7 25.1,-75.9 0.7,-4.1 1.4,-8.1 1.6,-8.8 0.2,-0.7 3.9,1.4 9.6,5.8 14.1,10.6 31.7,20.6 62.2,35.5 25.2,12.3 28.2,14 33.5,19.4 5.29998,5.3 6.59998,6 13.79998,8 8.9,2.4 15.8,2.7 20,0.9 2,-0.9 14.9,-1.2 47.3,-1.3 41.59997,-0.1 45.29997,-0.2 56.49997,-2.3 28.7,-5.3 47.49999,-13.7 65.69999,-29.4 7.8,-6.7 9.8,-10.2 12.2,-20.8 0.9,-4.1 2.2,-9.5 2.7,-11.9 1.5,-6.7 1.2,-22.2 -0.6,-29.3 -0.9,-3.5 -3.8,-10.9 -6.5,-16.4 -26.7,-55.2 -114.59996,-104.6 -207.99994,-116.9 -34.6,-4.6 -76.2,-1.9 -100.4,6.5 -3.3,1.1 -6,1.9 -6.1,1.8 -0.6,-0.7 3.6,-22.5 6,-31.3 2.7,-9.7 2.9,-12.6 2.3,-29.3 -0.1,-1.5 0.4,-5.6 1,-9.2 0.7,-4.2 0.8,-8.7 0.3,-12.5 -0.6,-4.2 -0.5,-6.1 0.3,-6.5 0.6,-0.2 10.3,-3.4 21.5,-7 l 20.4,-6.5 33.6,16.7 c 26.89998,13.4 34.69998,17.7 39.39998,21.9 6.3,5.6 11.6,7.8 24.8,10 6.1,1 8.2,1 11,-0.1 2.4,-0.9 14.4,-1.5 42.4,-2.1 21.49997,-0.4 43.29997,-1.2 48.49997,-1.8 47.19999,-5.5 79.09999,-19.1 105.09999,-45 12.8,-12.8 15,-16.8 19,-34.4 4.7,-21 5.3,-30.8 2.8,-46.7 -2.5,-15.9 -12.6,-38.1 -24.6,-54.5 -8.6,-11.6 -32.1,-35.2 -44.3,-44.2 -31.09999,-23.2 -71.19999,-43.1 -110.49996,-54.7 -70.7,-20.9 -142.99998,-18.8 -191.89998,5.5 -17.6,8.8 -33,21.4 -42.7,35.2 -4.8,6.8 -17.4,33.4 -18.8,39.7 -0.5,2.5 -1.2,9.9 -1.6,16.5 -0.9,15.5 0.6,21.9 8.5,37.3 14.5,28.6 35.3,54.1 58.9,72.7 3.4,2.6 6.1,5.1 6.1,5.5 0,0.7 -15.1,7 -16.6,6.9 -0.5,0 -2.6,-3.5 -4.7,-7.7 -14.3,-29.4 -37.3,-51.2 -67.8,-64.4 -19.4,-8.4 -45.7,-12.7 -64.9,-10.8 -18.9,2 -40.2,8.4 -52.9,15.8 -3.6,2.2 -8.6,5.1 -11.1,6.5 -9.4,5.4 -22,17.4 -26.6,25.3 -1.1,1.8 -1.2,1.8 -4,-0.1 -1.6,-1 -8.1,-6.4 -14.4,-11.9 -6.3,-5.6 -13.9,-12.1 -16.8,-14.5 -2.9,-2.4 -5.1,-4.5 -4.9,-4.7 0.2,-0.2 4.1,-1.5 8.8,-2.8 37.1,-10.9 61.1,-33.3 69.3,-64.8 3.4,-13.3 4.1,-24.1 2.2,-36.6 -6.3,-41.3 -36.9,-84 -87.1,-121.3 -44.2,-32.800009 -101.8,-56.700005 -157,-65.000005 -14.8,-2.3 -46.3,-3.3 -59.2,-1.9 z m 37.8,13.099996 c 2.4,0.6 5.4,2.8 9.2,6.8 l 5.7,6 v 13.3 c 0,18.200009 1.7,27.500009 15,83.800009 5.4,23 7.1,32.3 5.5,31 -0.6,-0.5 -1.4,-0.8 -1.6,-0.5 -1.7,1.6 -25.9,-7.6 -39.9,-15.2 -11.5,-6.3 -24.1,-10.4 -33.5,-10.9 -6.2,-0.4 -8.4,-0.1 -9.9,1.1 -2.9,2.2 -2.7,7.8 0.4,10.5 1.2,1.1 2,2 1.7,2 -1.9,0 5.9,6 8.5,6.5 1.6,0.4 2.7,0.9 2.5,1.1 -0.5,0.5 -46.7,-11.4 -56.2,-14.5 -9.8533,-2.24866 11.69855,2.64951 -14,-3.4 -1.1,-0.3 -5.5,-1.3 -9.9,-2.3 -9,-1.9 -8.6,-1.4 -13.1,-17 -7,-24.2 -4.7,-47 6.3,-61.5 16.6,-22.100009 49.5,-35.800009 92.2,-38.200009 8.1,-0.5 27,0.4 31.1,1.4 z m 88.4,20.4 c 18.9,7 47.8,21.700009 67.5,34.400009 48.5,31.1 87.7,75.6 98.1,111.4 2.5,8.5 2.1,12.3 -2.2,21.4 -4.4,9.1 -13.6,8.7 -73.4,-3 -24.2,-4.7 -53.9,-10.4 -66,-12.7 -31.4,-5.8 -39.5,-8.1 -39.5,-11.2 0,-0.5 0.5,-0.6 1.2,-0.2 0.7,0.4 0.8,0.3 0.4,-0.4 -0.4,-0.6 0.3,-3.3 1.4,-6.1 1.7,-3.8 3.1,-5.4 6.8,-7.4 6.3,-3.4 15.8,-5.5 30,-6.6 10.9,-0.8 12.4,-1.2 21.5,-5.5 6.9,-3.2 12.2,-6.6 17.8,-11.5 8.4,-7.3 14.1,-10.5 19.9,-11.4 7.7,-1.1 10,-2.8 12,-9 1.2,-3.9 1.2,-3.9 -3.1,-8.4 -9.5,-9.7 -32.3,-26 -44.3,-31.6 -6.6,-3.1 -6.8,-3.1 -14.4,3.7 -2,1.8 -5.9,4.8 -8.7,6.8 -6.8,4.9 -15.9,14.5 -23.6,24.8 -6.4,8.7 -20.5,23.1 -26.3,27.1 -1.8,1.2 -4.1,3.6 -5.1,5.3 l -1.8,3.1 -0.8,-3.5 c -0.5,-1.9 -1.5,-15.9 -2.4,-31 -0.9,-15.1 -2.2,-34.9 -3.1,-44 -1.6,-18 -1.1,-28.900009 1.5,-32.100009 0.9,-1 4.8,-3 8.6,-4.4 9.1,-3.2 15,-2.8 28,2 z M 831.34324,195.41507 c 7.4,0.6 14.9,1.5 16.6,2.1 1.7,0.5 5.9,3.8 9.3,7.4 7.1,7.3 7,7.2 4.4,24.1 -1.4,8.9 -1.7,18.1 -1.8,50.4 0,34.4 -0.2,39.5 -1.5,39.2 -0.8,-0.2 -4.4,-2.7 -8,-5.6 -3.6,-2.9 -8.3,-6.3 -10.5,-7.6 -6.5,-3.9 -37.59998,-31.1 -56.99998,-49.8 -17.4,-16.8 -25.3,-23.3 -34.3,-28.2 l -4.3,-2.4 -5.5,1.9 c -10.9,3.7 -31.8,18.5 -35.7,25.3 l -1.7,3 7.7,4.5 c 4.3,2.5 12.1,5.9 17.3,7.7 14.7,5.1 23.9,8.8 31,12.7 3.6,2 8.1,4.5 10,5.6 13.5,7.4 30.3,18.1 38.7,24.6 10.5,8.3 19.29998,13.9 34.09998,21.6 16.7,8.8 19,12.6 9.2,15.7 -6.2,2 -4.4,2.4 -67.99998,-14.6 -27.8,-7.4 -58.6,-15.5 -68.5,-18.1 -22.4,-5.7 -35.4,-10.1 -39.1,-13 l -2.9,-2.3 v -15.9 c 0.1,-14.4 0.3,-16.4 2.6,-22.3 10.2,-26.6 42.2,-49.7 82,-59.3 17.4,-4.3 35.5,-6.6 58.9,-7.5 1.9,-0.1 9.6,0.3 16.99998,0.8 z m -599.29998,10.6 c -0.3,0.3 -1.2,0.4 -1.9,0.1 -0.8,-0.3 -0.5,-0.6 0.6,-0.6 1.1,-0.1 1.7,0.2 1.3,0.5 z m 5.8,1.4 c 1.3,0.5 1.4,0.9 0.5,0.9 -0.8,0 -2.4,-0.4 -3.5,-0.9 -1.3,-0.5 -1.4,-0.9 -0.5,-0.9 0.8,0 2.4,0.4 3.5,0.9 z m -17.2,15 c 56.4,11.3 72.7,15.1 72.7,16.6 0,0.2 -2.1,5 -4.6,10.5 -5.2,11.6 -6.8,18.7 -6.2,27.6 0.4,6.8 2.5,10.7 7,13.2 3.5,2 9.2,0.3 15.7,-4.9 l 4.9,-3.9 0.6,3.7 c 1.1,7.6 2.8,36.3 2.2,36.9 -0.8,0.8 -21.9,-7.5 -37.1,-14.7 -23.1,-10.9 -50.5,-27.9 -70.5,-43.9 -12.3,-9.8 -32.8,-30.3 -41.1,-41.1 -7.5,-9.7 -10.9,-14.7 -9.3,-13.7 0.6,0.3 30.2,6.5 65.7,13.7 z m 22.4,-13.4 c -0.3,0.3 -1.2,0.4 -1.9,0.1 -0.8,-0.3 -0.5,-0.6 0.6,-0.6 1.1,-0.1 1.7,0.2 1.3,0.5 z m 694.49995,8.8 c 30.4,11 64.19999,30.1 89.29999,50.3 13.2,10.6 31.4,29.5 39.7,41.1 14,19.6 22.6,40.6 23.5,57.4 0.6,9.3 0.5,10 -2.4,16 -4.8,10 -5.4,10.3 -19.7,10.2 -11,0 -15.8,-0.7 -53.1,-8.2 -22.49999,-4.5 -53.09999,-10.4 -67.99999,-13.2 -42.99997,-8.1 -46.69997,-8.9 -51.49997,-11.3 -3,-1.5 -4.6,-2.9 -4.8,-4.5 -0.4,-2.6 -1.2,-2.6 12.1,-0.2 6,1.1 13.2,2 16,2.1 4.7,0.1 18.7,3.2 20.89997,4.5 0.5,0.3 10.1,0.9 21.3,1.4 15.7,0.6 23,0.5 31.7,-0.7 6.2,-0.7 21.89999,-1.7 34.79999,-2.2 24.2,-0.7 26,-1.1 30.8,-5.4 3.2,-2.9 2.8,-5.9 -2.4,-20 -5.8,-15.9 -8.2,-18.9 -18.4,-22.3 -22.2,-7.4 -32,-8.2 -51.89999,-3.9 -6.8,1.4 -17.2,3.2 -23,4 -11.4,1.5 -24.8,5.8 -48.09997,15.5 -14.2,5.9 -24.4,7.6 -26.9,4.6 -0.7,-0.9 -2,-1.6 -2.7,-1.6 -2,0 -1.8,-1.1 2.6,-24.1 5,-26.1 8.5,-47 10.5,-62.9 3,-23.3 3.2,-23.6 13.7,-27.6 9,-3.3 14.9,-3.1 25.99997,1 z m -565.39995,38.5 c 7.1,1.7 25.7,6.4 41.3,10.5 35.6,9.4 58,15 68.8,17.1 10.3,2.1 24.7,2.3 32.4,0.5 8.1,-1.9 8.5,-0.9 4.1,8.1 -2.9,5.7 -5.8,9.5 -12.8,16.4 -5,4.9 -11.7,10.5 -14.8,12.3 -13.4,7.9 -35.6,15.5 -48.8,16.8 l -5.5,0.5 -9,-8.8 c -9.6,-9.4 -19.9,-20.7 -31,-33.8 -3.7,-4.4 -11.8,-13.3 -18.1,-19.8 -6.3,-6.5 -11.4,-12.4 -11.4,-13.1 0,-0.8 -0.7,-1.9 -1.5,-2.6 -0.8,-0.6 -1.3,-1.7 -1.2,-2.3 0.1,-0.6 -1.4,-1.9 -3.3,-2.8 -1.9,-1 -3.2,-1.8 -2.9,-1.9 0.4,0 6.5,1.3 13.7,2.9 z m -30.5,55.6 c 0.5,4 0.4,4.4 -0.3,2 -1.4,-4.4 -2,-8.9 -1.1,-7.9 0.5,0.5 1.1,3.1 1.4,5.9 z m 12.7,11.5 c 4.1,2.1 6.9,2.9 10.8,3 7.3,0 13.6,3.7 15.5,9.2 0.5,1.5 0,1.8 -2.7,1.8 -4.4,0 -29.1,-4.7 -31.5,-5.9 -2.2,-1.2 -3.5,-7.9 -1.9,-9.8 1.6,-2 3.7,-1.6 9.8,1.7 z m 366.4,15 c 13.3,2.7 45.2,9.3 71,14.5 25.9,5.3 47.59998,10.1 48.29998,10.7 0.7,0.6 1.3,1.4 1.3,1.9 0,1.3 -11.4,6.3 -29.49998,12.8 -9.3,3.4 -27.2,10.3 -39.8,15.3 l -22.7,9.1 -3.8,-2.6 c -15.4,-10.8 -37.6,-31.8 -47.7,-45.2 -5.2,-6.9 -16.5,-24.7 -16.5,-25.9 0,-0.2 3.5,0.7 7.7,2 4.2,1.3 18.5,4.6 31.7,7.4 z m 194.09998,42 c 67.59997,17.4 131.49996,33.1 138.99996,34.1 4.9,0.6 12.1,0.9 15.9,0.6 l 6.9,-0.6 -2.4,2.7 c -11.4,13.1 -28.4,24.5 -47.4,32.1 -22.5,9 -44.89999,13 -76.69999,13.8 -26.89997,0.7 -55.39997,-1.6 -57.29997,-4.6 -1.2,-2.1 -1.2,-7.4 0.1,-19.3 1.7,-14.3 1.4,-22.5 -1,-38.3 -2.1,-13.7 -2,-18.1 0.5,-22.1 2.4,-3.9 0.2,-4.1 22.4,1.6 z m -606.49998,35.5 c 11.7,0.7 16.4,2.7 21.5,9 l 3.9,4.7 0.2,13.7 c 0.2,11.7 0.7,15.7 3.9,29.1 2,8.5 4.4,19.3 5.5,24 1,4.7 1.9,8.9 2.1,9.5 0.4,1.3 -2.3,5.5 -3.6,5.5 -0.5,0 -1.1,2 -1.1,4.5 -0.1,3.7 -1.6,8.4 -4.1,12.7 -0.2,0.4 1.7,2.1 4.3,3.7 4.2,2.6 4.5,2.9 2.6,3.5 -2.5,0.8 -3.6,0.6 -75.7,-19.8 -42,-11.8 -55.4,-16 -56.6,-17.5 -2.8,-3.4 -7.9,-18.9 -9.1,-27.3 -2.7,-19.1 4.3,-31.8 23.4,-42.6 6.9,-3.9 20.1,-8.5 30.8,-10.7 8.2,-1.7 31.9,-3.4 39,-2.9 1.9,0.2 7.8,0.6 13,0.9 z m 506,3.7 c 0,3.8 -2.9,10.7 -5.3,12.6 -1.1,0.9 -2.7,1.1 -4.9,0.7 -3.6,-0.8 -17.2,-7.4 -16.6,-8 0.6,-0.7 24.2,-8.5 25.6,-8.5 0.7,0 1.2,1.3 1.2,3.2 z m -355.5,1.4 5,0.6 -0.4,8.4 c -0.2,6.7 0.2,10.1 2.3,17.4 1.4,5 2.6,9.5 2.6,10 0,0.5 -4.2,-1.6 -9.2,-4.7 -10.1,-6 -27.5,-15.2 -37.7,-19.7 -6,-2.7 -6.3,-3 -4.5,-4.3 9,-6.8 25.1,-9.7 41.9,-7.7 z m -73.7,12.3 c 1,0.6 -0.3,2.9 -5.1,9.4 -3.6,4.7 -8.5,11.8 -10.8,15.8 -4.3,7.2 -4.4,7.3 -5,4.4 -1.1,-4.9 -1,-16.7 0.1,-20.7 1.2,-4.3 2.9,-5.4 11.5,-7.9 7.1,-2.1 7.6,-2.1 9.3,-1 z m 47.1,19.1 c 12.8,6.4 25.1,13.6 37.8,22.2 8,5.4 11.3,8.4 16,14.5 8,10.6 8.1,10.7 5.1,10 -1.7,-0.5 -2.9,-0.1 -4.2,1.4 -1.2,1.4 -2.5,2 -4.2,1.6 -1.7,-0.3 -2.8,0.1 -3.4,1.3 -0.5,1 -3.1,2.3 -5.7,2.9 -2.6,0.6 -11.3,2.9 -19.3,5.1 -8,2.2 -21.9,5.1 -31,6.5 -14.5,2.2 -17.5,3 -24.8,6.6 -8.7,4.3 -13.4,4.7 -16.2,1.4 -1.7,-2 -11.4,-7.5 -13.3,-7.5 -1.2,0 -1.6,-1.9 -2.2,-9 l -0.7,-9 6.6,-12.1 c 5.1,-9.3 22,-36.5 24.2,-38.8 0.2,-0.2 1.7,0.8 3.4,2.3 2.6,2.1 4.2,2.6 8.5,2.6 4.9,0 5.8,-0.4 8.7,-3.4 1.8,-1.9 3.6,-3.5 4.1,-3.5 0.4,-0.1 5.2,2.1 10.6,4.9 z m -189.7,72.5 c 8.4,2 33.5,7.6 55.7,12.6 22.3,5 41.3,9.5 42.3,10 1.2,0.6 1.7,1.7 1.3,2.8 -0.3,0.9 -1.2,3.9 -1.9,6.7 -2.4,8.2 -5.7,17.8 -7.1,20.4 -1.9,3.9 -3.4,9.1 -3.7,13.3 -0.3,4.6 0.1,4.7 -17.3,-3.8 -21.6,-10.6 -44.4,-25.9 -62.9,-42.2 -9,-8 -23.7,-23.3 -22.3,-23.3 0.3,0 7.5,1.6 15.9,3.5 z m 571.3,11.5 c 9.5,1.4 11.59998,2.4 17.69998,8.7 l 4.7,4.8 -0.9,11.5 c -1.3,16.6 -1.6,44.1 -0.7,62 1,20.7 1.6,20 -13.59998,17.6 -6.1,-1 -12.3,-2.5 -13.7,-3.4 -1.4,-0.9 -15.8,-11.9 -32,-24.6 -16.2,-12.6 -37.4,-29 -47,-36.4 -9.6,-7.4 -17.9,-13.8 -18.3,-14.2 -0.5,-0.4 0.1,-4.3 1.3,-8.7 l 2.2,-8 8.2,-2.6 c 13.3,-4.2 25.5,-6.4 45.6,-8.1 7.8,-0.7 38.2,0.3 46.5,1.4 z m -118,4.4 c -1,5 -2.9,6.4 -6.3,4.4 -1.5,-0.9 -2.8,-2 -2.9,-2.5 -0.3,-0.9 8.8,-6.5 9.5,-5.8 0.2,0.1 0,1.9 -0.3,3.9 z m -251.7,9.8 c 0.2,0.4 0.8,0.6 1.3,0.2 1.5,-0.9 1,0.4 -1.6,4.6 -1.4,2.2 -2.9,4 -3.4,4 -0.5,0 -5.1,-1 -10.2,-2.1 -8.8,-2.1 -9.1,-2.2 -6.7,-3.5 1.4,-0.7 3.9,-1.6 5.5,-1.9 1.7,-0.2 4.5,-1.1 6.4,-1.9 3.3,-1.4 8.1,-1.1 8.7,0.6 z m 454.29998,5.9 c 23.9,7.8 57.79997,25.8 80.69997,42.9 11.8,8.9 29.09999,25.7 36.79999,36 10.9,14.5 18.3,32 18.4,43.4 0,4.5 -5.3,15.1 -8.4,16.9 -4.6,2.6 -19,1.2 -43.59999,-4.2 -43.3,-9.5 -46.29997,-10.2 -54.99997,-14.3 -7.8,-3.7 -12.5,-5.9 -23.5,-10.8 -6.1,-2.7 -10.3,-3.8 -18.5,-5.1 -8.3,-1.2 -11.7,-2.7 -17.2,-7.3 -4.3,-3.5 -5,-7.2 -1.8,-10.1 1.1,-1 2.9,-3.6 4,-5.9 1.1,-2.2 5.9,-8.4 10.6,-13.6 15.2,-16.7 21.4,-26.7 21.4,-34.6 0,-5 -7.5,-12.7 -20.7,-21.1 -5.7,-3.6 -10.3,-7 -10.3,-7.4 0,-1.3 4.5,-4 9.2,-5.4 6.2,-1.9 10.6,-1.8 17.9,0.6 z m -265.19998,5.9 c 3.6,8.1 3.7,9 1.4,17.6 -1.3,4.8 -2.2,6.4 -3.5,6.4 -1.6,0 -1.8,-1 -1.8,-9.3 0,-8.1 -0.8,-14 -2.6,-20 -0.4,-1.2 0,-1.7 1.4,-1.7 1.4,0 2.7,1.8 5.1,7 z m -217.2,4 c 8.1,2.2 14.8,4.2 15,4.4 0.3,0.2 -1.7,3.5 -4.4,7.3 -9,12.7 -11.6,17.2 -10.8,19.1 1.3,3 1.2,9.2 -0.2,10.4 -1,0.8 -1.8,0.6 -3.3,-0.7 -1.8,-1.7 -1.9,-1.6 -2.5,1.1 -0.4,1.6 -1.2,4.9 -1.9,7.4 -1.4,5.2 -1.5,5.2 -13.3,1.8 l -7.3,-2.1 v -10.1 c 0,-5.6 -0.7,-14.6 -1.5,-20 -2.4,-16.1 -2.5,-15.9 4.3,-18.8 6.9,-3.1 8.3,-3.6 10,-3.7 0.8,-0.1 7.9,1.7 15.9,3.9 z m 42.6,11.5 c 5.1,1.5 9.9,2.8 10.8,3.1 1.2,0.3 1.8,2.2 2.3,7 0.8,8.2 4.6,20.1 9,28.2 1.9,3.4 3.1,6.4 2.7,6.7 -0.4,0.2 -6.8,0.8 -14.2,1.3 -13,0.9 -27.2,0.7 -39.3,-0.7 l -5.8,-0.6 -0.2,-4.5 -0.2,-4.5 h 5.4 c 4.8,0 5.7,-0.3 8.3,-3.3 3.6,-4 3.9,-9.8 0.8,-14.8 -1.3,-2.1 -1.7,-3.9 -1.2,-4.8 1,-1.8 11.7,-15.5 12.1,-15.6 0.2,0 4.4,1.1 9.5,2.5 z m 217.6,13.5 4.2,7 -1.9,6.8 c -2.3,8.2 -4.2,8.8 -5.8,1.7 -1.1,-4.6 -1.9,-22.5 -1,-22.5 0.2,0 2.2,3.2 4.5,7 z m 73.8,37.2 c 1,1.1 -0.4,1.2 -9,0.6 -5.6,-0.4 -11.5,-1.2 -13.2,-1.7 -1.6,-0.5 -5.4,-1.2 -8.3,-1.6 -5.4,-0.7 -8.2,-2.5 -8.2,-5.1 0,-0.9 -2.2,-8.4 -5,-16.8 -2.7,-8.4 -5,-15.5 -5,-15.9 0,-0.7 46.8,38.2 48.7,40.5 z m 30.9,29.2 c 7.4,1.6 6.9,1.3 17.4,10.1 9.3,7.9 17,15.8 17,17.5 0,0.7 0.7,1.8 1.5,2.6 1.1,1.2 1.5,3.9 1.5,10.8 0,10.3 1.1,14.9 4.6,18.6 2.49998,2.7 2.39998,7 -0.2,7 -2.4,0 -27.6,-9.6 -40.5,-15.4 -22.5,-10.2 -50.7,-27.2 -61.2,-36.9 -4.5,-4.2 -4.8,-4.8 -4.5,-8.8 l 0.3,-4.4 6.5,-1.1 c 9.3,-1.7 50,-1.7 57.6,0 z m 89.89998,21.6 c 3.9,1.1 7.4,2 7.9,2 0.5,0 0.7,0.3 0.3,0.6 -0.3,0.3 1.2,2 3.3,3.8 2.2,1.7 9.2,7.8 15.7,13.6 6.5,5.8 16.1,14 21.4,18.1 5.7,4.6 10.8,9.6 12.7,12.5 2.9,4.6 7.19997,7.8 11.69997,8.7 1.1,0.2 -2.5,0.7 -7.99997,1.2 -20.6,1.6 -55.5,-1.1 -77.7,-6.1 l -6.8,-1.6 -0.2,-10.1 c -0.5,-24.3 -0.2,-28.9 2.3,-36.2 1.9,-5.5 2.9,-7.1 4.9,-7.6 3.9,-1.1 5,-1 12.5,1.1 z m 120.89997,31.4 c 6,1.4 13.99999,2.6 17.79999,2.8 3.7,0.1 6.8,0.5 6.8,0.9 0,1.2 -13.5,9.8 -20.19999,12.8 -7.2,3.3 -19.1,7.1 -22,7.1 -2.6,0 -1.4,-1.6 2.7,-3.6 2.6,-1.2 3.8,-2.6 4.6,-5.4 1.1,-3.5 0.9,-4 -2.5,-8.4 -2,-2.6 -3.6,-5.9 -3.6,-7.3 0,-2.9 -1.6,-3 16.4,1.1 z m -25.7,25.2 c -0.3,0.3 -1.2,0.4 -1.9,0.1 -0.8,-0.3 -0.5,-0.6 0.6,-0.6 1.1,-0.1 1.7,0.2 1.3,0.5 z"
     id="path4"
     style="fill:#000000;stroke:none;stroke-width:0.1"
     sodipodi:nodetypes="cccccscccccccccsccccccccsccccccccccscccccccccccccccsscccccccccccccccccscccccccccccccccccsccccccccccccscccccccccscccccccccsscccccccscscccccccscscccccccccccccsscccccccccccccccccsccccccccccsccccccccccccccccccccccccccccscsccsccccccscccccccccccccccccscccccccccsccccscccccccccccccccsscsccccccccccscccccsscccccssccccccscccccccccccccscccccccccccscccssccccscccccccccccccccccssscccscccccscccccsccccccscccccccscsccccccccccccccsccccccccccccccccccscsccccsscscccccccccccsccccccccccccccsccsccccccscccccscscccscscscccccccsccsccccccccccccscscccsccccc" />
</svg>
